<svg width="9" height="9" viewBox="0 0 9 9" fill="none" xmlns="http://www.w3.org/2000/svg">
<path d="M4.37494 0.598999C2.16494 0.598999 0.374939 2.39 0.374939 4.599C0.374939 6.36667 1.52094 7.86566 3.10994 8.394C3.30994 8.43166 3.38327 8.308 3.38327 8.20166C3.38327 8.10666 3.37994 7.855 3.37827 7.52167C2.26561 7.763 2.03094 6.985 2.03094 6.985C1.84894 6.52333 1.58594 6.4 1.58594 6.4C1.22361 6.152 1.61394 6.157 1.61394 6.157C2.01561 6.185 2.22661 6.569 2.22661 6.569C2.58327 7.18067 3.16294 7.004 3.39161 6.90166C3.42761 6.643 3.53061 6.46667 3.64494 6.36667C2.75661 6.26667 1.82294 5.92267 1.82294 4.39C1.82294 3.95333 1.97794 3.59667 2.23461 3.31667C2.18961 3.21567 2.05461 2.809 2.26961 2.258C2.26961 2.258 2.60461 2.15067 3.36961 2.668C3.68961 2.579 4.02961 2.535 4.36961 2.533C4.70961 2.535 5.04961 2.579 5.36961 2.668C6.12961 2.15067 6.46461 2.258 6.46461 2.258C6.67961 2.809 6.54461 3.21567 6.50461 3.31667C6.75961 3.59667 6.91461 3.95333 6.91461 4.39C6.91461 5.92667 5.97961 6.265 5.08961 6.36333C5.22961 6.48333 5.35961 6.72866 5.35961 7.10333C5.35961 7.63866 5.35461 8.06867 5.35461 8.19867C5.35461 8.30367 5.42461 8.42867 5.62961 8.38867C7.22994 7.864 8.37494 6.364 8.37494 4.599C8.37494 2.39 6.58394 0.598999 4.37494 0.598999" fill="#222222"/>
</svg>
