<svg width="9" height="9" viewBox="0 0 9 9" fill="none" xmlns="http://www.w3.org/2000/svg">
<path d="M7.44073 7.31733H6.25606V5.461C6.25606 5.01833 6.24706 4.44867 5.63873 4.44867C5.02106 4.44867 4.92673 4.93033 4.92673 5.42833V7.31733H3.74206V3.5H4.88006V4.02033H4.89539C5.05439 3.72033 5.44106 3.40367 6.01873 3.40367C7.21906 3.40367 7.44106 4.19367 7.44106 5.222V7.31733H7.44073ZM2.40406 2.97767C2.02273 2.97767 1.71639 2.669 1.71639 2.28933C1.71639 1.91 2.02306 1.60167 2.40406 1.60167C2.78406 1.60167 3.09206 1.91 3.09206 2.28933C3.09206 2.669 2.78373 2.97767 2.40406 2.97767ZM2.99806 7.31733H1.81006V3.5H2.99806V7.31733ZM8.03339 0.5H1.21539C0.889061 0.5 0.625061 0.758 0.625061 1.07633V7.92367C0.625061 8.24233 0.889061 8.5 1.21539 8.5H8.03239C8.35839 8.5 8.62506 8.24233 8.62506 7.92367V1.07633C8.62506 0.758 8.35839 0.5 8.03239 0.5H8.03339Z" fill="#0A66C2"/>
</svg>
