<svg width="9" height="9" viewBox="0 0 9 9" fill="none" xmlns="http://www.w3.org/2000/svg">
<path d="M4.62506 8.49976C5.51173 8.4997 6.37327 8.20518 7.07441 7.66243C7.77555 7.11968 8.27658 6.35945 8.49884 5.50109M4.62506 8.49976C3.7384 8.4997 2.87686 8.20518 2.17572 7.66243C1.47458 7.11968 0.973542 6.35945 0.751285 5.50109M4.62506 8.49976C5.72951 8.49976 6.62506 6.70865 6.62506 4.49976C6.62506 2.29087 5.72951 0.499756 4.62506 0.499756M4.62506 8.49976C3.52062 8.49976 2.62506 6.70865 2.62506 4.49976C2.62506 2.29087 3.52062 0.499756 4.62506 0.499756M4.62506 0.499756C5.3345 0.49946 6.03125 0.687915 6.64381 1.04578C7.25638 1.40365 7.7627 1.91805 8.11084 2.5362M4.62506 0.499756C3.91562 0.49946 3.21888 0.687915 2.60631 1.04578C1.99375 1.40365 1.48742 1.91805 1.13928 2.5362M8.11084 2.5362C7.14314 3.37439 5.9053 3.83493 4.62506 3.83309C3.29262 3.83309 2.07395 3.3442 1.13928 2.5362M8.11084 2.5362C8.449 3.13531 8.62616 3.81181 8.62506 4.49976C8.62506 4.84553 8.58106 5.18109 8.49884 5.50109M8.49884 5.50109C7.31358 6.15815 5.98026 6.50188 4.62506 6.49976C3.21973 6.49976 1.89928 6.13753 0.751285 5.50109M0.751285 5.50109C0.667172 5.17397 0.624762 4.83752 0.625063 4.49976C0.625063 3.78642 0.811729 3.1162 1.13928 2.5362" stroke="#7C3AED" stroke-width="0.5" stroke-linecap="round" stroke-linejoin="round"/>
</svg>
